<?xml version="1.0" encoding="UTF-8" standalone="no"?>
<svg width="25px" height="25px" viewBox="0 0 42 42" version="1.1" xmlns="http://www.w3.org/2000/svg" xmlns:xlink="http://www.w3.org/1999/xlink" xmlns:sketch="http://www.bohemiancoding.com/sketch/ns">
    <!-- Generator: Sketch 3.2.2 (9983) - http://www.bohemiancoding.com/sketch -->
    <title>categorie</title>
    <desc>Created with Sketch.</desc>
    <defs></defs>
    <g id="Page-1" stroke="none" stroke-width="1" fill="none" fill-rule="evenodd" sketch:type="MSPage">
        <g id="categorie" sketch:type="MSArtboardGroup" transform="translate(-2231.000000, -2746.000000)">
            <g id="article-+-article-2-+-article-3" sketch:type="MSLayerGroup" transform="translate(1111.000000, 2155.000000)"></g>
            <g id="Fill-1636" sketch:type="MSLayerGroup" transform="translate(2231.500000, 2746.000000)" fill="#1B1A19">
                <path d="M1.38666667,39.66135 C1.476,38.499 1.798,36.0458333 2.96333333,33.6541667 C3.91533333,31.7066667 7.816,30.2443333 12.754,28.38635 C13.6573333,28.0508333 14.604,27.6955 15.5866667,27.3135167 C15.8473333,27.21785 16.0193333,26.9643333 16.0193333,26.6780167 L16.0193333,21.21135 C16.0193333,20.9988333 15.9246667,20.8006667 15.7626667,20.6708333 C15.7446667,20.6571667 13.9613333,19.1948333 13.9613333,16.1198333 C13.9613333,15.785 13.726,15.5048333 13.416,15.4501667 C13.2333333,15.24585 12.924,14.4190167 13.0033333,13.5573333 C13.0393333,13.161 13.1713333,12.6416667 13.5933333,12.4236833 C13.8186667,12.3068333 13.9613333,12.0676667 13.9613333,11.8155167 C13.9613333,11.603 13.8953333,11.37135 13.7033333,10.7215 C13.2813333,9.29401667 12.2933333,5.95183333 13.302,4.55783333 C13.6326667,4.1 14.18,3.88201667 14.976,3.88201667 C15.282,3.88201667 15.5486667,3.66266667 15.6226667,3.362 C15.8966667,2.24133333 18.2826667,1.394 21.174,1.394 C24.1813333,1.394 27.4133333,2.35066667 27.772,4.18883333 C28.158,6.17801667 27.0653333,8.9995 26.478,10.5165 C26.174,11.3030167 26.0773333,11.562 26.0773333,11.8155167 C26.0773333,12.0676667 26.22,12.3068333 26.446,12.4236833 C26.868,12.6416667 27,13.161 27.036,13.5573333 C27.1146667,14.4190167 26.806,15.24585 26.6233333,15.4501667 C26.3126667,15.5048333 26.0773333,15.785 26.0773333,16.1198333 C26.0773333,19.20235 24.2513333,20.9851667 24.2346667,21.0056667 C24.098,21.1361833 24.0193333,21.3131667 24.0193333,21.5051833 L24.0193333,26.6780167 C24.0193333,26.9643333 24.192,27.21785 24.452,27.3135167 C25.434,27.6955 26.3786667,28.0508333 27.2813333,28.38635 C32.2206667,30.2375 36.122,31.7066667 37.0753333,33.6541667 C38.2366667,36.0396833 38.5606667,38.499 38.6513333,39.66135 L1.38666667,39.66135 L1.38666667,39.66135 Z M38.268,33.046 C37.0773333,30.6065 33.1606667,29.1380167 27.74,27.101 C26.974,26.8146833 26.1773333,26.52085 25.3526667,26.199 L25.3526667,21.7846667 C25.8946667,21.1771833 27.266,19.3725 27.4006667,16.5646833 C27.7773333,16.27085 28.0786667,15.7105167 28.2526667,14.95885 C28.5293333,13.7555 28.3833333,12.3280167 27.5206667,11.5346667 C27.5786667,11.3775 27.6506667,11.193 27.7173333,11.0221667 C28.3553333,9.3685 29.5433333,6.30101667 29.0793333,3.92301667 C28.554,1.23 24.73,0.0280166667 21.174,0.0280166667 C18.576,0.0280166667 15.4133333,0.697 14.5093333,2.53516667 C13.51,2.624 12.7453333,3.034 12.2313333,3.74466667 C10.8226667,5.69285 11.8666667,9.21816667 12.4273333,11.1185167 C12.4666667,11.2476667 12.5086667,11.3911667 12.5433333,11.5073333 C11.6586667,12.3 11.5073333,13.7418333 11.786,14.95885 C11.96,15.7105167 12.262,16.27085 12.6386667,16.5646833 C12.7713333,19.3185167 14.1113333,20.9380167 14.686,21.5113333 L14.686,26.199 C13.8613333,26.52085 13.0626667,26.8146833 12.2953333,27.1078333 C6.87533333,29.1380167 2.95933333,30.6065 1.77066667,33.046 C0.0393333333,36.5925 0.0193333333,40.1936667 0.0193333333,40.344 C0.0193333333,40.7198333 0.318,41.0280167 0.686,41.0280167 L39.3526667,41.0280167 C39.7213333,41.0280167 40.0193333,40.7198333 40.0193333,40.344 C40.0193333,40.1936667 40,36.5925 38.268,33.046 L38.268,33.046 Z" id="Fill-1635" sketch:type="MSShapeGroup"></path>
            </g>
        </g>
    </g>
</svg>