<?xml version="1.0" encoding="UTF-8" standalone="no"?>
<svg width="25px" height="25px" viewBox="0 0 42 42" version="1.1" xmlns="http://www.w3.org/2000/svg" xmlns:xlink="http://www.w3.org/1999/xlink" xmlns:sketch="http://www.bohemiancoding.com/sketch/ns">
    <!-- Generator: Sketch 3.2.2 (9983) - http://www.bohemiancoding.com/sketch -->
    <title>categorie 2</title>
    <desc>Created with Sketch.</desc>
    <defs></defs>
    <g id="Page-1" stroke="none" stroke-width="1" fill="none" fill-rule="evenodd" sketch:type="MSPage">
        <g id="categorie" sketch:type="MSArtboardGroup" transform="translate(-2510.000000, -2746.000000)">
            <g id="article-+-article-2-+-article-3" sketch:type="MSLayerGroup" transform="translate(1111.000000, 2155.000000)"></g>
            <g id="Fill-783" sketch:type="MSLayerGroup" transform="translate(2510.000000, 2749.000000)" fill="#1B1A19">
                <path d="M40.6203,33.6 L1.4203,33.6 L1.4203,1.4 L12.7512,1.4 L16.0713,5.39 C16.2043,5.5307 16.4003,5.6 16.6075,5.6 L40.6203,5.6 L40.6203,33.6 L40.6203,33.6 Z M41.3203,4.2 L16.933,4.2 L13.6129,0.2807 C13.4799,0.14 13.2839,0 13.0774,0 L0.7203,0 C0.3339,0 0.0203,0.35 0.0203,0.7 L0.0203,34.3 C0.0203,34.72 0.3339,35 0.7203,35 L41.3203,35 C41.7067,35 42.0203,34.72 42.0203,34.3 L42.0203,4.9 C42.0203,4.55 41.7067,4.2 41.3203,4.2 L41.3203,4.2 Z" id="Fill-782" sketch:type="MSShapeGroup"></path>
            </g>
        </g>
    </g>
</svg>