<?xml version="1.0" encoding="UTF-8" standalone="no"?>
<svg width="44px" height="33px" viewBox="0 0 44 33" version="1.1" xmlns="http://www.w3.org/2000/svg" xmlns:xlink="http://www.w3.org/1999/xlink" xmlns:sketch="http://www.bohemiancoding.com/sketch/ns">
    <!-- Generator: Sketch 3.3.2 (12043) - http://www.bohemiancoding.com/sketch -->
    <title>Fill-783</title>
    <desc>Created with Sketch.</desc>
    <defs></defs>
    <g id="Page-1" stroke="none" stroke-width="1" fill="none" fill-rule="evenodd" sketch:type="MSPage">
        <g id="uE003-folder" sketch:type="MSLayerGroup" transform="translate(-2077.005939, -782.792459)" fill="#1B1A19">
            <g id="Page-1" transform="translate(0.000000, 1.000000)" sketch:type="MSShapeGroup">
                <g id="categorie">
                    <g id="Fill-783" transform="translate(2077.000000, 782.000000)">
                        <path d="M42.5096163,30.72 L1.48636047,30.72 L1.48636047,1.28 L13.3442791,1.28 L16.8188023,4.928 C16.9579884,5.05664 17.1631047,5.12 17.3799419,5.12 L42.5096163,5.12 L42.5096163,30.72 L42.5096163,30.72 Z M43.2421744,3.84 L17.7205814,3.84 L14.2460581,0.25664 C14.1068721,0.128 13.9017558,0 13.6856512,0 L0.753802326,0 C0.349430233,0 0.021244186,0.32 0.021244186,0.64 L0.021244186,31.36 C0.021244186,31.744 0.349430233,32 0.753802326,32 L43.2421744,32 C43.6465465,32 43.9747326,31.744 43.9747326,31.36 L43.9747326,4.48 C43.9747326,4.16 43.6465465,3.84 43.2421744,3.84 L43.2421744,3.84 L43.2421744,3.84 Z" id="Fill-782"></path>
                    </g>
                </g>
            </g>
        </g>
    </g>
</svg>