<?xml version="1.0" encoding="UTF-8" standalone="no"?>
<svg width="42px" height="31px" viewBox="0 0 42 31" version="1.1" xmlns="http://www.w3.org/2000/svg" xmlns:xlink="http://www.w3.org/1999/xlink" xmlns:sketch="http://www.bohemiancoding.com/sketch/ns">
    <!-- Generator: Sketch 3.3.2 (12043) - http://www.bohemiancoding.com/sketch -->
    <title>uE009-menu</title>
    <desc>Created with Sketch.</desc>
    <defs></defs>
    <g id="Page-1" stroke="none" stroke-width="1" fill="none" fill-rule="evenodd" sketch:type="MSPage">
        <g id="uE009-menu" sketch:type="MSLayerGroup">
            <g id="Page-1" sketch:type="MSShapeGroup">
                <g id="uE009-menu">
                    <g id="Page-1">
                        <g id="blogPost-2">
                            <g id="Group">
                                <g id="icon-back-home">
                                    <g id="Group">
                                        <path d="M26.4001949,3.82724252 L0,3.82724252 L0,0 L30.4900181,0 L30.4900181,3.46076314 C30.2563601,3.44997331 30.0212901,3.44451827 29.7849365,3.44451827 C28.6207358,3.44451827 27.4876762,3.57686996 26.4001949,3.82724252 L26.4001949,3.82724252 L26.4001949,3.82724252 Z M15.8258033,13.0126246 L0,13.0126246 L0,9.18538205 L17.9882738,9.18538205 C17.0878069,10.3376579 16.354889,11.625411 15.8258033,13.0126246 L15.8258033,13.0126246 L15.8258033,13.0126246 Z M15.3981525,22.1980067 L0,22.1980067 L0,18.3707642 L14.8643228,18.3707642 C14.8744522,19.6951069 15.0596767,20.9780822 15.3981525,22.1980067 L15.3981525,22.1980067 L15.3981525,22.1980067 Z" id="Rectangle-30" fill="#000000"></path>
                                        <ellipse id="Oval-3" fill="#000000" cx="29.7751196" cy="18.7428571" rx="12.0909091" ry="12.16"></ellipse>
                                        <path d="M29.3466424,16.330215 L29.3466424,14.721215 C29.3466424,14.5602522 29.2859482,14.3992892 29.1651793,14.2760521 C29.0444102,14.1534436 28.8858621,14.0924538 28.727314,14.0924538 C28.5687659,14.0924538 28.4102178,14.1534436 28.2894487,14.2760521 L24.3920146,18.179402 L28.2894487,22.0821233 C28.4102178,22.2047316 28.5687659,22.2663502 28.727314,22.2663502 C28.8858621,22.2663502 29.0444102,22.2047316 29.1651793,22.0821233 C29.2859482,21.9595148 29.3466424,21.7979231 29.3466424,21.637589 L29.3466424,20.0726022 C31.0497958,20.115358 32.910878,20.428481 34.3012704,22.5807309 L34.3012704,21.9519697 C34.3012704,19.0389187 32.1336207,16.6433382 29.3466424,16.330215 L29.3466424,16.330215 L29.3466424,16.330215 Z" id="Shape" fill="#FFFFFF"></path>
                                    </g>
                                </g>
                            </g>
                        </g>
                    </g>
                </g>
            </g>
        </g>
    </g>
</svg>