<?xml version="1.0" encoding="UTF-8" standalone="no"?>
<svg width="30px" height="32px" viewBox="0 0 30 32" version="1.1" xmlns="http://www.w3.org/2000/svg" xmlns:xlink="http://www.w3.org/1999/xlink" xmlns:sketch="http://www.bohemiancoding.com/sketch/ns">
    <!-- Generator: Sketch 3.3.2 (12043) - http://www.bohemiancoding.com/sketch -->
    <title>Shape</title>
    <desc>Created with Sketch.</desc>
    <defs></defs>
    <g id="Page-1" stroke="none" stroke-width="1" fill="none" fill-rule="evenodd" sketch:type="MSPage">
        <path d="M30,16 C30,16.739621 29.7486957,17.3626903 29.246087,17.869208 L15.9782609,31.2402235 C15.4486957,31.7467412 14.8304348,32 14.1234783,32 C13.4304348,32 12.8191304,31.7467412 12.2895652,31.2402235 L10.7608696,29.6996385 C10.2443478,29.1790996 9.98608696,28.5560302 9.98608696,27.8304305 C9.98608696,27.1048308 10.2443478,26.4817614 10.7608696,25.9612225 L16.7321739,19.9434768 L2.38434783,19.9434768 C1.67826087,19.9434768 1.10434783,19.6867127 0.662608696,19.1731844 C0.220869565,18.659656 0,18.040092 0,17.3144923 L0,14.6855077 C0,13.959908 0.220869565,13.340344 0.662608696,12.8268156 C1.10434783,12.3132873 1.67826087,12.0565232 2.38434783,12.0565232 L16.7321739,12.0565232 L10.7608696,6.01774565 C10.2443478,5.52524921 9.98608696,4.90919049 9.98608696,4.1695695 C9.98608696,3.42994852 10.2443478,2.8138898 10.7608696,2.32139336 L12.2895652,0.780808413 C12.806087,0.260269471 13.4173913,0 14.1234783,0 C14.8434783,0 15.4617391,0.260269471 15.9782609,0.780808413 L29.246087,14.1518239 C29.7486957,14.6311754 30,15.2472341 30,16 L30,16 Z" id="Shape" fill="#444444" sketch:type="MSShapeGroup"></path>
    </g>
</svg>