<?xml version="1.0" encoding="UTF-8" standalone="no"?>
<svg width="32px" height="32px" viewBox="0 0 32 32" version="1.1" xmlns="http://www.w3.org/2000/svg" xmlns:xlink="http://www.w3.org/1999/xlink" xmlns:sketch="http://www.bohemiancoding.com/sketch/ns">
    <!-- Generator: Sketch 3.3.2 (12043) - http://www.bohemiancoding.com/sketch -->
    <title>calendar</title>
    <desc>Created with Sketch.</desc>
    <defs></defs>
    <g id="Page-1" stroke="none" stroke-width="1" fill="none" fill-rule="evenodd" sketch:type="MSPage">
        <g id="uE00A-calendar" sketch:type="MSLayerGroup" fill="#1B1A19">
            <g id="Page-1" sketch:type="MSShapeGroup">
                <g id="Artboard-2">
                    <g id="Group">
                        <path d="M8.016,7.24695925 C8.30933333,7.24695925 8.54933333,7.01468491 8.54933333,6.73079405 L8.54933333,0.536811796 C8.54933333,0.252920942 8.30933333,0.0211627727 8.016,0.0211627727 C7.72266667,0.0211627727 7.48266667,0.252920942 7.48266667,0.536811796 L7.48266667,6.73079405 C7.48266667,7.01468491 7.72266667,7.24695925 8.016,7.24695925" id="Fill-4416"></path>
                        <path d="M15.4826667,7.56182001 C15.776,7.56182001 16.016,7.32954567 16.016,7.04565482 L16.016,0.536811796 C16.016,0.252920942 15.776,0.0211627727 15.4826667,0.0211627727 C15.1893333,0.0211627727 14.9493333,0.252920942 14.9493333,0.536811796 L14.9493333,7.04565482 C14.9493333,7.32954567 15.1893333,7.56182001 15.4826667,7.56182001" id="Fill-4417"></path>
                        <path d="M22.9493333,7.7636406 C23.2426667,7.7636406 23.4826667,7.5308501 23.4826667,7.24695925 L23.4826667,0.536811796 C23.4826667,0.252920942 23.2426667,0.0211627727 22.9493333,0.0211627727 C22.656,0.0211627727 22.416,0.252920942 22.416,0.536811796 L22.416,7.24695925 C22.416,7.5308501 22.656,7.7636406 22.9493333,7.7636406" id="Fill-4418"></path>
                        <path d="M30.416,2.08530737 L26.1493333,2.08530737 C25.856,2.08530737 25.616,2.3175817 25.616,2.60147255 C25.616,2.88536341 25.856,3.1181539 26.1493333,3.1181539 L29.8826667,3.1181539 L29.8826667,29.9582275 L1.08266667,29.9582275 L1.08266667,3.1181539 L4.816,3.1181539 C5.10933333,3.1181539 5.34933333,2.88536341 5.34933333,2.60147255 C5.34933333,2.3175817 5.10933333,2.08530737 4.816,2.08530737 L0.549333333,2.08530737 C0.256,2.08530737 0.016,2.3175817 0.016,2.60147255 L0.016,30.4743928 C0.016,30.7582836 0.256,30.9910741 0.549333333,30.9910741 L30.416,30.9910741 C30.7093333,30.9910741 30.9493333,30.7582836 30.9493333,30.4743928 L30.9493333,2.60147255 C30.9493333,2.3175817 30.7093333,2.08530737 30.416,2.08530737" id="Fill-4419"></path>
                        <path d="M5.34933333,6.21514503 C5.34933333,5.93073801 5.10933333,5.69846368 4.816,5.69846368 C4.52266667,5.69846368 4.28266667,5.93073801 4.28266667,6.21514503 L4.28266667,26.3455874 C4.28266667,26.6289621 4.52266667,26.8612364 4.816,26.8612364 L26.1493333,26.8612364 C26.4426667,26.8612364 26.6826667,26.6289621 26.6826667,26.3455874 L26.6826667,6.21514503 C26.6826667,5.93073801 26.4426667,5.69846368 26.1493333,5.69846368 C25.856,5.69846368 25.616,5.93073801 25.616,6.21514503 L25.616,25.828906 L5.34933333,25.828906 L5.34933333,6.21514503" id="Fill-4420"></path>
                        <path d="M10.1493333,3.1181539 L13.3493333,3.1181539 C13.6426667,3.1181539 13.8826667,2.88536341 13.8826667,2.60147255 C13.8826667,2.3175817 13.6426667,2.08530737 13.3493333,2.08530737 L10.1493333,2.08530737 C9.856,2.08530737 9.616,2.3175817 9.616,2.60147255 C9.616,2.88536341 9.856,3.1181539 10.1493333,3.1181539" id="Fill-4421"></path>
                        <path d="M17.616,3.1181539 L20.816,3.1181539 C21.1093333,3.1181539 21.3493333,2.88536341 21.3493333,2.60147255 C21.3493333,2.3175817 21.1093333,2.08530737 20.816,2.08530737 L17.616,2.08530737 C17.3226667,2.08530737 17.0826667,2.3175817 17.0826667,2.60147255 C17.0826667,2.88536341 17.3226667,3.1181539 17.616,3.1181539" id="Fill-4422"></path>
                    </g>
                </g>
            </g>
        </g>
    </g>
</svg>