<?xml version="1.0" encoding="UTF-8" standalone="no"?>
<svg width="60px" height="55px" viewBox="0 0 60 55" version="1.1" xmlns="http://www.w3.org/2000/svg" xmlns:xlink="http://www.w3.org/1999/xlink" xmlns:sketch="http://www.bohemiancoding.com/sketch/ns">
    <!-- Generator: Sketch 3.3.2 (12043) - http://www.bohemiancoding.com/sketch -->
    <title>uE004-tag</title>
    <desc>Created with Sketch.</desc>
    <defs></defs>
    <g id="Page-1" stroke="none" stroke-width="1" fill="none" fill-rule="evenodd" sketch:type="MSPage">
        <g id="uE004-tag" sketch:type="MSLayerGroup" transform="translate(0.784789, 0.916186)" fill="#1B1A19">
            <g id="Page-1" sketch:type="MSShapeGroup">
                <g id="categorie">
                    <g id="Fill-7-+-Fill-8-+-Fill-10">
                        <path d="M35.7898278,51.4015645 L1.99877682,21.0672384 L1.99877682,7.17106678 L18.3426438,7.17106678 L51.7820124,36.9176151 L35.7898278,51.4015645 L35.7898278,51.4015645 Z M19.4361096,5.63695797 C19.2518952,5.47730362 19.0046339,5.38811125 18.7455515,5.38811125 L1.01367242,5.38811125 C0.469894796,5.38811125 0.0285680274,5.788585 0.0285680274,6.27914306 L0.0285680274,21.4427384 C0.0285680274,21.6746385 0.133974198,21.9065387 0.320158929,22.0751123 L35.0982845,53.2924429 C35.2903799,53.4610164 35.5415815,53.5519927 35.791798,53.5519927 C36.0439847,53.5519927 36.2961714,53.4610164 36.4882667,53.2924429 L53.8773295,37.5410698 C54.0635142,37.3716043 54.1669502,37.1486233 54.1659652,36.9086959 C54.16498,36.6759038 54.0585887,36.4431117 53.8714188,36.2745381 L19.4361096,5.63695797 L19.4361096,5.63695797 Z" id="Fill-7"></path>
                        <path d="M58.8461961,29.7278179 L26.3377511,0.294334831 C26.1535365,0.125761246 25.9023349,0.0365688729 25.6412823,0.0365688729 L8.89450757,0.0365688729 C8.35072994,0.0365688729 7.90940319,0.437042627 7.90940319,0.927600679 C7.90940319,1.41815873 8.35072994,1.81952441 8.89450757,1.81952441 L25.2334491,1.81952441 L56.7567897,30.3610838 L54.4979452,32.4035891 C54.1137545,32.7523312 54.1137545,33.3133513 54.4979452,33.6701207 C54.6910258,33.8386943 54.9422274,33.9287787 55.1944141,33.9287787 C55.4466008,33.9287787 55.6987875,33.8386943 55.8908829,33.6701207 L58.8461961,30.9943495 C59.231372,30.6375801 59.231372,30.07656 58.8461961,29.7278179" id="Fill-8"></path>
                        <path d="M12.1926371,18.0257786 C10.681487,18.0257786 9.45207667,16.9108739 9.45207667,15.5471225 C9.45207667,14.1815873 10.681487,13.0666826 12.1926371,13.0666826 C13.7037872,13.0666826 14.9341827,14.1815873 14.9341827,15.5471225 C14.9341827,16.9108739 13.7037872,18.0257786 12.1926371,18.0257786 L12.1926371,18.0257786 L12.1926371,18.0257786 Z M12.1926371,11.2828352 C9.59491679,11.2828352 7.48186787,13.191552 7.48186787,15.5471225 C7.48186787,17.9009092 9.59491679,19.810518 12.1926371,19.810518 C14.7903573,19.810518 16.9043914,17.9009092 16.9043914,15.5471225 C16.9043914,13.191552 14.7903573,11.2828352 12.1926371,11.2828352 L12.1926371,11.2828352 L12.1926371,11.2828352 Z" id="Fill-9"></path>
                    </g>
                </g>
            </g>
        </g>
    </g>
</svg>