<?xml version="1.0" encoding="UTF-8" standalone="no"?>
<svg width="46px" height="32px" viewBox="0 0 46 32" version="1.1" xmlns="http://www.w3.org/2000/svg" xmlns:xlink="http://www.w3.org/1999/xlink" xmlns:sketch="http://www.bohemiancoding.com/sketch/ns">
    <!-- Generator: Sketch 3.3.2 (12043) - http://www.bohemiancoding.com/sketch -->
    <title>uE006-hamburger</title>
    <desc>Created with Sketch.</desc>
    <defs></defs>
    <g id="Page-1" stroke="none" stroke-width="1" fill="none" fill-rule="evenodd" sketch:type="MSPage">
        <g id="uE006-hamburger" sketch:type="MSLayerGroup" fill="#000000">
            <g id="Page-1" sketch:type="MSShapeGroup">
                <g id="hamburger">
                    <g id="Page-1">
                        <g id="home-3">
                            <g id="J’ai-préféré-utilise-+-Rectangle-13" transform="translate(0.300872, 0.000000)">
                                <path d="M0,3.61290324 C0,1.61755185 1.63897742,1.86517468e-15 3.67682685,1.86517468e-15 L41.2534057,1.86517468e-15 C43.2840586,1.86517468e-15 44.9302326,1.62161204 44.9302326,3.61290324 C44.9302326,5.60825455 43.2912551,7.22580647 41.2534057,7.22580647 L3.67682685,7.22580647 C1.646174,7.22580647 0,5.60419444 0,3.61290324 L0,3.61290324 L0,3.61290324 Z M0,16 C0,14.0046486 1.63897742,12.3870967 3.67682685,12.3870967 L41.2534057,12.3870967 C43.2840586,12.3870967 44.9302326,14.0087088 44.9302326,16 C44.9302326,17.9953514 43.2912551,19.6129033 41.2534057,19.6129033 L3.67682685,19.6129033 C1.646174,19.6129033 0,17.9912912 0,16 L0,16 L0,16 Z M0,28.3870967 C0,26.3917455 1.63897742,24.7741935 3.67682685,24.7741935 L41.2534057,24.7741935 C43.2840586,24.7741935 44.9302326,26.3958055 44.9302326,28.3870967 C44.9302326,30.3824481 43.2912551,32 41.2534057,32 L3.67682685,32 C1.646174,32 0,30.3783879 0,28.3870967 L0,28.3870967 L0,28.3870967 Z" id="Rectangle-64"></path>
                            </g>
                        </g>
                    </g>
                </g>
            </g>
        </g>
    </g>
</svg>