<?xml version="1.0" encoding="UTF-8" standalone="no"?>
<svg width="38px" height="32px" viewBox="0 0 38 32" version="1.1" xmlns="http://www.w3.org/2000/svg" xmlns:xlink="http://www.w3.org/1999/xlink" xmlns:sketch="http://www.bohemiancoding.com/sketch/ns">
    <!-- Generator: Sketch 3.3.2 (12043) - http://www.bohemiancoding.com/sketch -->
    <title>Shape</title>
    <desc>Created with Sketch.</desc>
    <defs></defs>
    <g id="Page-1" stroke="none" stroke-width="1" fill="none" fill-rule="evenodd" sketch:type="MSPage">
        <path d="M20.7468125,0.00118356327 L10.803875,0.00118356327 C6.346,0.00118356327 2.1505625,3.36723749 2.1505625,7.26589488 C2.1505625,11.2497688 5.189375,14.4655102 9.7244375,14.4655102 C10.0403125,14.4655102 10.3466875,14.4595924 10.6459375,14.4371047 C10.3514375,14.9992973 10.14125,15.63132 10.14125,16.2881977 C10.14125,17.3960129 10.7385625,18.2931538 11.495,19.0257795 C10.9238125,19.0257795 10.3728125,19.0423494 9.77075,19.0423494 C4.2500625,19.0423494 0,22.5468802 0,26.181603 C0,29.7606983 4.6585625,32 10.1804375,32 C16.475375,32 19.9511875,28.4398417 19.9511875,24.8607464 C19.9511875,21.9906055 19.102125,20.2720716 16.4741875,18.4197951 C15.57525,17.7854052 13.8569375,16.2432223 13.8569375,15.3377964 C13.8569375,14.2761401 14.1609375,13.7518216 15.76525,12.5031623 C17.4099375,11.2225469 18.5736875,9.42234715 18.5736875,7.32862374 C18.5736875,4.8360395 17.4598125,2.40618412 15.368625,1.60372822 L18.5214375,1.60372822 L20.7468125,0 L20.7468125,0.00118356327 Z M17.273375,24.2441099 C17.35175,24.5755076 17.3956875,24.9175574 17.3956875,25.265525 C17.3956875,28.1581536 15.525375,30.4175759 10.16025,30.4175759 C6.343625,30.4175759 3.5874375,28.0090247 3.5874375,25.1175796 C3.5874375,22.2829456 7.00625,19.9229204 10.822875,19.9643452 C11.7135,19.9738137 12.5435625,20.1170248 13.2964375,20.3596553 C15.368625,21.7953175 16.8541875,22.6072419 17.273375,24.2429264 L17.273375,24.2441099 Z M11.1636875,13.4559308 C8.60225,13.3789991 6.167875,10.5999926 5.7249375,7.24695787 C5.282,3.89392314 7.0003125,1.32795798 9.56175,1.40370603 C12.1231875,1.48063764 14.5575625,4.17087695 15.0005,7.52391168 C15.4434375,10.8769464 13.7239375,13.5328624 11.1636875,13.4559308 L11.1636875,13.4559308 Z M30.875,7.10256315 L30.875,0.00118356327 L28.5,0.00118356327 L28.5,7.10256315 L21.375,7.10256315 L21.375,9.46968968 L28.5,9.46968968 L28.5,16.5710693 L30.875,16.5710693 L30.875,9.46968968 L38,9.46968968 L38,7.10256315 L30.875,7.10256315 Z" id="Shape" fill="#444444" sketch:type="MSShapeGroup"></path>
    </g>
</svg>