<?xml version="1.0" encoding="UTF-8" standalone="no"?>
<svg width="35px" height="32px" viewBox="0 0 35 32" version="1.1" xmlns="http://www.w3.org/2000/svg" xmlns:xlink="http://www.w3.org/1999/xlink" xmlns:sketch="http://www.bohemiancoding.com/sketch/ns">
    <!-- Generator: Sketch 3.3.2 (12043) - http://www.bohemiancoding.com/sketch -->
    <title>uE00D - linkedin</title>
    <desc>Created with Sketch.</desc>
    <defs></defs>
    <g id="Page-1" stroke="none" stroke-width="1" fill="none" fill-rule="evenodd" sketch:type="MSPage">
        <g id="uE00D---linkedin" sketch:type="MSLayerGroup" fill="#444444">
            <path d="M12.4137931,9.84615385 L19.2848276,9.84615385 L19.2848276,13.3378462 L19.3828966,13.3378462 C20.3387586,11.6381538 22.6787586,9.84615385 26.1657931,9.84615385 C33.417931,9.84615385 34.7586207,14.3224615 34.7586207,20.144 L34.7586207,32 L27.5971034,32 L27.5971034,21.4892308 C27.5971034,18.9821538 27.5449655,15.7575385 23.8717241,15.7575385 C20.1413793,15.7575385 19.5728276,18.4873846 19.5728276,21.3070769 L19.5728276,32 L12.4137931,32 L12.4137931,9.84615385 L12.4137931,9.84615385 Z" id="Shape" sketch:type="MSShapeGroup"></path>
            <path d="M0,9.84615385 L7.44827586,9.84615385 L7.44827586,32 L0,32 L0,9.84615385 L0,9.84615385 Z" id="Shape" sketch:type="MSShapeGroup"></path>
            <path d="M7.44827586,3.69230769 C7.44827586,5.73169231 5.78110345,7.38461538 3.72413793,7.38461538 C1.66717241,7.38461538 0,5.73169231 0,3.69230769 C0,1.65292308 1.66717241,0 3.72413793,0 C5.78110345,0 7.44827586,1.65292308 7.44827586,3.69230769 L7.44827586,3.69230769 Z" id="Shape" sketch:type="MSShapeGroup"></path>
        </g>
    </g>
</svg>