<?xml version="1.0" encoding="UTF-8" standalone="no"?>
<svg width="35px" height="33px" viewBox="0 0 35 33" version="1.1" xmlns="http://www.w3.org/2000/svg" xmlns:xlink="http://www.w3.org/1999/xlink" xmlns:sketch="http://www.bohemiancoding.com/sketch/ns">
    <!-- Generator: Sketch 3.3.2 (12043) - http://www.bohemiancoding.com/sketch -->
    <title>Fill-1636</title>
    <desc>Created with Sketch.</desc>
    <defs></defs>
    <g id="Page-1" stroke="none" stroke-width="1" fill="none" fill-rule="evenodd" sketch:type="MSPage">
        <g id="uE005-user" sketch:type="MSLayerGroup" transform="translate(-1667.801345, -782.225932)" fill="#1B1A19">
            <g id="Page-1" sketch:type="MSShapeGroup">
                <g id="categorie">
                    <g id="Fill-1636" transform="translate(1668.000000, 783.000000)">
                        <path d="M1.18373984,30.2181714 C1.26,29.3325714 1.53487805,27.463492 2.52967479,25.6412699 C3.34235772,24.1574603 6.67219512,23.0433016 10.887561,21.6276952 C11.6586992,21.3720635 12.4668293,21.1013333 13.3056911,20.8102984 C13.5282114,20.7374095 13.6750406,20.5442539 13.6750406,20.326108 L13.6750406,16.1610286 C13.6750406,15.9991111 13.5942277,15.848127 13.455935,15.7492063 C13.4405691,15.7387937 11.9182114,14.6246349 11.9182114,12.2817778 C11.9182114,12.0266667 11.7173171,11.8132063 11.4526829,11.7715556 C11.2967479,11.6158857 11.0326829,10.9859175 11.1004065,10.3293968 C11.1311382,10.0274286 11.2438211,9.63174606 11.604065,9.46566347 C11.7964228,9.3766349 11.9182114,9.19441272 11.9182114,9.00229844 C11.9182114,8.84038095 11.8618699,8.66388571 11.6979675,8.1687619 C11.3377235,7.08115556 10.4943089,4.53473016 11.3553659,3.47263492 C11.6376423,3.12380952 12.104878,2.95772699 12.7843902,2.95772699 C13.0456098,2.95772699 13.2732521,2.79060318 13.3364228,2.56152381 C13.5703252,1.70768254 15.6071545,1.06209524 18.0753659,1.06209524 C20.6426016,1.06209524 23.401626,1.79098413 23.7078049,3.19149206 C24.0373171,4.70706032 23.1045528,6.8567619 22.6031707,8.01257143 C22.3436585,8.61182225 22.2611382,8.80914286 22.2611382,9.00229844 C22.2611382,9.19441272 22.3829268,9.3766349 22.5758537,9.46566347 C22.9360976,9.63174606 23.0487805,10.0274286 23.0795122,10.3293968 C23.1466667,10.9859175 22.8831707,11.6158857 22.7272357,11.7715556 C22.4620325,11.8132063 22.2611382,12.0266667 22.2611382,12.2817778 C22.2611382,14.6303619 20.7023577,15.9886984 20.6881301,16.0043175 C20.5714634,16.1037587 20.5043089,16.2386032 20.5043089,16.3849016 L20.5043089,20.326108 C20.5043089,20.5442539 20.6517073,20.7374095 20.8736585,20.8102984 C21.7119512,21.1013333 22.518374,21.3720635 23.2889431,21.6276952 C27.5054472,23.0380952 30.8358537,24.1574603 31.6496748,25.6412699 C32.6410569,27.4588063 32.9176423,29.3325714 32.9950406,30.2181714 L1.18373984,30.2181714 L1.18373984,30.2181714 Z M32.6678049,25.1779048 C31.6513821,23.3192381 28.3078862,22.2003937 23.6804878,20.648381 C23.0265854,20.4302349 22.346504,20.2063619 21.6425204,19.9611429 L21.6425204,16.5978413 C22.1052033,16.1349968 23.2758537,14.76 23.390813,12.6207111 C23.7123577,12.3968381 23.9695935,11.9699175 24.1181301,11.397219 C24.3543089,10.480381 24.2296748,9.39277463 23.4932521,8.78831749 C23.5427643,8.66857143 23.6042277,8.528 23.6611382,8.3978413 C24.2057723,7.13790476 25.2199187,4.80077461 24.8238211,2.98896508 C24.3753659,0.937142857 21.1109756,0.0213460318 18.0753659,0.0213460318 C15.857561,0.0213460318 13.1577235,0.531047619 12.3860162,1.93155556 C11.5329268,1.9992381 10.8801626,2.31161905 10.4413821,2.85307937 C9.23886182,4.33740952 10.1300813,7.02336508 10.6086992,8.47125082 C10.6422765,8.56965082 10.6781301,8.67898415 10.7077235,8.76749204 C9.95252035,9.37142857 9.8233333,10.4699682 10.0612195,11.397219 C10.2097561,11.9699175 10.467561,12.3968381 10.7891057,12.6207111 C10.9023577,14.7188699 12.0462601,15.9527746 12.5368293,16.3895873 L12.5368293,19.9611429 C11.8328455,20.2063619 11.1510569,20.4302349 10.4960162,20.6535873 C5.86918699,22.2003937 2.52626016,23.3192381 1.51154472,25.1779048 C0.0335772357,27.88 0.016504065,30.6237461 0.016504065,30.7382857 C0.016504065,31.0246349 0.271463415,31.2594413 0.585609756,31.2594413 L33.5937399,31.2594413 C33.9084553,31.2594413 34.1628455,31.0246349 34.1628455,30.7382857 C34.1628455,30.6237461 34.1463415,27.88 32.6678049,25.1779048 L32.6678049,25.1779048 L32.6678049,25.1779048 Z" id="Fill-1635"></path>
                    </g>
                </g>
            </g>
        </g>
    </g>
</svg>