<?xml version="1.0" encoding="UTF-8" standalone="no"?>
<svg width="32px" height="32px" viewBox="0 0 32 32" version="1.1" xmlns="http://www.w3.org/2000/svg" xmlns:xlink="http://www.w3.org/1999/xlink" xmlns:sketch="http://www.bohemiancoding.com/sketch/ns">
    <!-- Generator: Sketch 3.3.2 (12043) - http://www.bohemiancoding.com/sketch -->
    <title>circle-up</title>
    <desc>Created with Sketch.</desc>
    <defs></defs>
    <g id="Page-1" stroke="none" stroke-width="1" fill="none" fill-rule="evenodd" sketch:type="MSPage">
        <g id="circle-up" sketch:type="MSLayerGroup" fill="#444444">
            <path d="M0,16 C0,24.836 7.164,32 16,32 C24.836,32 32,24.836 32,16 C32,7.164 24.836,0 16,0 C7.164,0 0,7.164 0,16 L0,16 Z M29,16 C29,23.18 23.18,29 16,29 C8.82,29 3,23.18 3,16 C3,8.82 8.82,3 16,3 C23.18,3 29,8.82 29,16 L29,16 Z" id="Shape" sketch:type="MSShapeGroup"></path>
            <path d="M22.086,20.914 L24.914,18.086 L16,9.172 L7.086,18.086 L9.914,20.914 L16,14.828 L22.086,20.914 Z" id="Shape" sketch:type="MSShapeGroup"></path>
        </g>
    </g>
</svg>